<mxfile host="app.diagrams.net" modified="2021-02-20T15:36:20.893Z" agent="5.0 (Macintosh; Intel Mac OS X 10_15_6) AppleWebKit/605.1.15 (KHTML, like Gecko) Version/14.0.2 Safari/605.1.15" etag="dz9RdsY-Of8uZR7rujCE" version="14.4.2" type="github">
  <diagram id="1cHpMq7ECVsvftTSA-dX" name="第 1 页">
    <mxGraphModel dx="937" dy="541" grid="1" gridSize="10" guides="1" tooltips="1" connect="1" arrows="1" fold="1" page="1" pageScale="1" pageWidth="827" pageHeight="1169" math="0" shadow="0">
      <root>
        <mxCell id="0" />
        <mxCell id="1" parent="0" />
        <mxCell id="_4EUZEzLC2BRRkQPI1Kf-1" value="&lt;font color=&quot;#ff3333&quot; style=&quot;font-size: 22px&quot;&gt;n &amp;nbsp; &amp;nbsp; &amp;nbsp; &amp;nbsp;&lt;/font&gt;&lt;font color=&quot;#00cc66&quot; style=&quot;font-size: 22px&quot;&gt;g &amp;nbsp; &amp;nbsp; &amp;nbsp;&amp;nbsp;&lt;/font&gt;&lt;font color=&quot;#007fff&quot; style=&quot;font-size: 22px&quot;&gt;h &amp;nbsp; &amp;nbsp; &amp;nbsp; &amp;nbsp;&lt;/font&gt;&lt;font color=&quot;#ff00ff&quot; style=&quot;font-size: 22px&quot;&gt;tt &amp;nbsp; &amp;nbsp; &amp;nbsp; &amp;nbsp; &amp;nbsp;&lt;/font&gt;&lt;font color=&quot;#ffb570&quot; style=&quot;font-size: 22px&quot;&gt;p &amp;nbsp; &amp;nbsp; &amp;nbsp; &amp;nbsp;&amp;nbsp;&lt;/font&gt;&lt;font color=&quot;#a680b8&quot; style=&quot;font-size: 22px&quot;&gt;x&lt;/font&gt;" style="text;html=1;align=center;verticalAlign=middle;resizable=0;points=[];autosize=1;fontSize=22;fontStyle=1" vertex="1" parent="1">
          <mxGeometry x="115" y="150" width="350" height="30" as="geometry" />
        </mxCell>
        <mxCell id="_4EUZEzLC2BRRkQPI1Kf-2" value="&lt;font color=&quot;#ff3333&quot; style=&quot;font-size: 17px;&quot;&gt;101010&lt;/font&gt;&lt;font color=&quot;#00cc66&quot; style=&quot;font-size: 17px;&quot;&gt;10 0110&lt;/font&gt;&lt;font color=&quot;#007fff&quot; style=&quot;font-size: 17px;&quot;&gt;1001 11&lt;/font&gt;&lt;font color=&quot;#ff00ff&quot; style=&quot;font-size: 17px;&quot;&gt;010010 1001&lt;/font&gt;&lt;font color=&quot;#ffb570&quot; style=&quot;font-size: 17px;&quot;&gt;1010 11&lt;/font&gt;&lt;font color=&quot;#a680b8&quot; style=&quot;font-size: 17px;&quot;&gt;111100 1&lt;/font&gt;&lt;strike style=&quot;font-size: 17px;&quot;&gt;111111&lt;/strike&gt;1" style="text;html=1;align=center;verticalAlign=middle;resizable=0;points=[];autosize=1;fontSize=17;fontStyle=1" vertex="1" parent="1">
          <mxGeometry x="90" y="185" width="480" height="30" as="geometry" />
        </mxCell>
      </root>
    </mxGraphModel>
  </diagram>
</mxfile>
